<svg width="32" height="32" viewBox="0 0 32 32" fill="none" xmlns="http://www.w3.org/2000/svg">
<path d="M0.000183105 16.0001C0.000183105 7.16354 7.16363 9.15527e-05 16.0002 9.15527e-05C24.8367 9.15527e-05 32.0002 7.16354 32.0002 16.0001C32.0002 24.8366 24.8367 32.0001 16.0002 32.0001C7.16363 32.0001 0.000183105 24.8366 0.000183105 16.0001Z" fill="#73D13D"/>
<path d="M22.9606 21.0521C22.5816 20.1545 22.0317 19.3391 21.3414 18.6515C20.6532 17.9618 19.838 17.412 18.9407 17.0323C18.9327 17.0282 18.9246 17.0262 18.9166 17.0222C20.1682 16.1182 20.9818 14.6456 20.9818 12.9843C20.9818 10.232 18.7519 8.00212 15.9996 8.00212C13.2474 8.00212 11.0175 10.232 11.0175 12.9843C11.0175 14.6456 11.8311 16.1182 13.0827 17.0242C13.0746 17.0282 13.0666 17.0302 13.0586 17.0343C12.1586 17.414 11.351 17.9584 10.6579 18.6535C9.96825 19.3417 9.41839 20.1569 9.0387 21.0541C8.66569 21.9325 8.46451 22.8743 8.44606 23.8285C8.44553 23.8499 8.44929 23.8712 8.45713 23.8912C8.46496 23.9112 8.47671 23.9294 8.49169 23.9447C8.50667 23.9601 8.52457 23.9723 8.54433 23.9806C8.5641 23.9889 8.58533 23.9932 8.60678 23.9932H9.81214C9.90053 23.9932 9.97084 23.9229 9.97285 23.8365C10.013 22.2856 10.6358 20.8332 11.7367 19.7323C12.8758 18.5932 14.3885 17.9664 15.9996 17.9664C17.6108 17.9664 19.1235 18.5932 20.2626 19.7323C21.3635 20.8332 21.9862 22.2856 22.0264 23.8365C22.0284 23.9249 22.0987 23.9932 22.1871 23.9932H23.3925C23.4139 23.9932 23.4352 23.9889 23.4549 23.9806C23.4747 23.9723 23.4926 23.9601 23.5076 23.9447C23.5226 23.9294 23.5343 23.9112 23.5421 23.8912C23.55 23.8712 23.5537 23.8499 23.5532 23.8285C23.5331 22.8682 23.3342 21.934 22.9606 21.0521ZM15.9996 16.4396C15.0775 16.4396 14.2097 16.08 13.5568 15.4271C12.9039 14.7742 12.5443 13.9064 12.5443 12.9843C12.5443 12.0622 12.9039 11.1943 13.5568 10.5414C14.2097 9.88851 15.0775 9.52891 15.9996 9.52891C16.9217 9.52891 17.7896 9.88851 18.4425 10.5414C19.0954 11.1943 19.455 12.0622 19.455 12.9843C19.455 13.9064 19.0954 14.7742 18.4425 15.4271C17.7896 16.08 16.9217 16.4396 15.9996 16.4396Z" fill="white"/>
<path d="M16.0002 31.0001C7.71591 31.0001 1.00018 24.2844 1.00018 16.0001H-0.999817C-0.999817 25.3889 6.61134 33.0001 16.0002 33.0001V31.0001ZM31.0002 16.0001C31.0002 24.2844 24.2845 31.0001 16.0002 31.0001V33.0001C25.389 33.0001 33.0002 25.3889 33.0002 16.0001H31.0002ZM16.0002 1.00009C24.2845 1.00009 31.0002 7.71582 31.0002 16.0001H33.0002C33.0002 6.61125 25.389 -0.999908 16.0002 -0.999908V1.00009ZM16.0002 -0.999908C6.61134 -0.999908 -0.999817 6.61125 -0.999817 16.0001H1.00018C1.00018 7.71582 7.71591 1.00009 16.0002 1.00009V-0.999908Z" fill="white"/>
</svg>
