<svg width="32" height="32" viewBox="0 0 32 32" fill="none" xmlns="http://www.w3.org/2000/svg">
<path d="M0.000183105 16.0001C0.000183105 7.16354 7.16363 9.15527e-05 16.0002 9.15527e-05C24.8367 9.15527e-05 32.0002 7.16354 32.0002 16.0001C32.0002 24.8366 24.8367 32.0001 16.0002 32.0001C7.16363 32.0001 0.000183105 24.8366 0.000183105 16.0001Z" fill="#FF7A45"/>
<path d="M14.0793 11.047V21.0001H12.7599V11.047H14.0793ZM20.0881 11.047L15.9523 15.6886L13.6281 18.1017L13.4094 16.6935L15.1594 14.7657L18.5021 11.047H20.0881ZM18.8166 21.0001L15.132 16.1466L15.9182 15.1007L20.3889 21.0001H18.8166Z" fill="white"/>
<path d="M16.0002 31.0001C7.71591 31.0001 1.00018 24.2844 1.00018 16.0001H-0.999817C-0.999817 25.3889 6.61134 33.0001 16.0002 33.0001V31.0001ZM31.0002 16.0001C31.0002 24.2844 24.2845 31.0001 16.0002 31.0001V33.0001C25.389 33.0001 33.0002 25.3889 33.0002 16.0001H31.0002ZM16.0002 1.00009C24.2845 1.00009 31.0002 7.71582 31.0002 16.0001H33.0002C33.0002 6.61125 25.389 -0.999908 16.0002 -0.999908V1.00009ZM16.0002 -0.999908C6.61134 -0.999908 -0.999817 6.61125 -0.999817 16.0001H1.00018C1.00018 7.71582 7.71591 1.00009 16.0002 1.00009V-0.999908Z" fill="white"/>
</svg>
