<svg width="32" height="32" viewBox="0 0 32 32" fill="none" xmlns="http://www.w3.org/2000/svg">
<path d="M0.000183105 16.0001C0.000183105 7.16354 7.16363 9.15527e-05 16.0002 9.15527e-05C24.8367 9.15527e-05 32.0002 7.16354 32.0002 16.0001C32.0002 24.8366 24.8367 32.0001 16.0002 32.0001C7.16363 32.0001 0.000183105 24.8366 0.000183105 16.0001Z" fill="#40A9FF"/>
<path d="M18.6047 17.8351H19.9172C19.8488 18.464 19.6688 19.0268 19.3771 19.5235C19.0855 20.0203 18.673 20.4145 18.1398 20.7061C17.6066 20.9933 16.9413 21.1368 16.1437 21.1368C15.5604 21.1368 15.0295 21.0274 14.551 20.8087C14.077 20.5899 13.6691 20.28 13.3273 19.879C12.9855 19.4734 12.7212 18.988 12.5344 18.4229C12.3521 17.8533 12.2609 17.2198 12.2609 16.5226V15.5313C12.2609 14.8341 12.3521 14.2029 12.5344 13.6378C12.7212 13.0681 12.9878 12.5805 13.3342 12.1749C13.6851 11.7693 14.1066 11.4571 14.5988 11.2384C15.091 11.0196 15.6447 10.9102 16.2599 10.9102C17.0119 10.9102 17.6476 11.0515 18.1672 11.3341C18.6867 11.6166 19.09 12.0086 19.3771 12.5099C19.6688 13.0066 19.8488 13.5831 19.9172 14.2393H18.6047C18.5409 13.7745 18.4224 13.3757 18.2492 13.0431C18.076 12.7058 17.8299 12.4461 17.5109 12.2638C17.1919 12.0815 16.7749 11.9903 16.2599 11.9903C15.8179 11.9903 15.4282 12.0746 15.091 12.2433C14.7583 12.4119 14.478 12.6511 14.2502 12.961C14.0269 13.2709 13.8583 13.6423 13.7443 14.0753C13.6304 14.5082 13.5734 14.989 13.5734 15.5177V16.5226C13.5734 17.0102 13.6236 17.4682 13.7238 17.8966C13.8286 18.325 13.9859 18.7009 14.1955 19.0245C14.4051 19.3481 14.6717 19.6033 14.9953 19.7901C15.3189 19.9724 15.7017 20.0636 16.1437 20.0636C16.7043 20.0636 17.1509 19.9747 17.4836 19.797C17.8163 19.6192 18.0669 19.364 18.2355 19.0313C18.4087 18.6987 18.5318 18.2999 18.6047 17.8351Z" fill="white"/>
<path d="M16.0002 31.0001C7.71591 31.0001 1.00018 24.2844 1.00018 16.0001H-0.999817C-0.999817 25.3889 6.61134 33.0001 16.0002 33.0001V31.0001ZM31.0002 16.0001C31.0002 24.2844 24.2845 31.0001 16.0002 31.0001V33.0001C25.389 33.0001 33.0002 25.3889 33.0002 16.0001H31.0002ZM16.0002 1.00009C24.2845 1.00009 31.0002 7.71582 31.0002 16.0001H33.0002C33.0002 6.61125 25.389 -0.999908 16.0002 -0.999908V1.00009ZM16.0002 -0.999908C6.61134 -0.999908 -0.999817 6.61125 -0.999817 16.0001H1.00018C1.00018 7.71582 7.71591 1.00009 16.0002 1.00009V-0.999908Z" fill="white"/>
</svg>
