<svg width="32" height="32" viewBox="0 0 32 32" fill="none" xmlns="http://www.w3.org/2000/svg">
<path d="M0.000183105 16.0001C0.000183105 7.16354 7.16363 9.15527e-05 16.0002 9.15527e-05C24.8367 9.15527e-05 32.0002 7.16354 32.0002 16.0001C32.0002 24.8366 24.8367 32.0001 16.0002 32.0001C7.16363 32.0001 0.000183105 24.8366 0.000183105 16.0001Z" fill="#FF4D4F"/>
<path d="M18.3107 11.047H19.6232V17.7804C19.6232 18.5278 19.4569 19.1498 19.1242 19.6466C18.7915 20.1433 18.3495 20.517 17.798 20.7677C17.2512 21.0138 16.6564 21.1368 16.0139 21.1368C15.3394 21.1368 14.7287 21.0138 14.1818 20.7677C13.6395 20.517 13.2088 20.1433 12.8898 19.6466C12.5754 19.1498 12.4182 18.5278 12.4182 17.7804V11.047H13.7238V17.7804C13.7238 18.2999 13.8195 18.7283 14.0109 19.0655C14.2023 19.4028 14.4689 19.6534 14.8107 19.8175C15.1571 19.9815 15.5581 20.0636 16.0139 20.0636C16.4741 20.0636 16.8752 19.9815 17.217 19.8175C17.5633 19.6534 17.8322 19.4028 18.0236 19.0655C18.215 18.7283 18.3107 18.2999 18.3107 17.7804V11.047Z" fill="white"/>
<path d="M16.0002 31.0001C7.71591 31.0001 1.00018 24.2844 1.00018 16.0001H-0.999817C-0.999817 25.3889 6.61134 33.0001 16.0002 33.0001V31.0001ZM31.0002 16.0001C31.0002 24.2844 24.2845 31.0001 16.0002 31.0001V33.0001C25.389 33.0001 33.0002 25.3889 33.0002 16.0001H31.0002ZM16.0002 1.00009C24.2845 1.00009 31.0002 7.71582 31.0002 16.0001H33.0002C33.0002 6.61125 25.389 -0.999908 16.0002 -0.999908V1.00009ZM16.0002 -0.999908C6.61134 -0.999908 -0.999817 6.61125 -0.999817 16.0001H1.00018C1.00018 7.71582 7.71591 1.00009 16.0002 1.00009V-0.999908Z" fill="white"/>
</svg>
