<svg width="32" height="32" viewBox="0 0 32 32" fill="none" xmlns="http://www.w3.org/2000/svg">
<path d="M0.000198364 16.0001C0.000198364 7.16354 7.16364 9.15527e-05 16.0002 9.15527e-05C24.8368 9.15527e-05 32.0002 7.16354 32.0002 16.0001C32.0002 24.8366 24.8368 32.0001 16.0002 32.0001C7.16364 32.0001 0.000198364 24.8366 0.000198364 16.0001Z" fill="#FFD8BF"/>
<path d="M15.4465 15.6612V16.8507H8.62422V15.6612H15.4465ZM12.6711 12.756V20.002H11.4064V12.756H12.6711ZM23.383 19.961V21.0001H16.8684V20.0909L20.1291 16.461C20.5301 16.0144 20.84 15.6362 21.0588 15.3263C21.2821 15.0118 21.437 14.7315 21.5236 14.4854C21.6148 14.2348 21.6604 13.9796 21.6604 13.7198C21.6604 13.3917 21.592 13.0955 21.4553 12.8311C21.3231 12.5623 21.1272 12.3481 20.8674 12.1886C20.6076 12.0291 20.2932 11.9493 19.924 11.9493C19.482 11.9493 19.1128 12.0359 18.8166 12.2091C18.5249 12.3777 18.3062 12.6147 18.1604 12.92C18.0145 13.2254 17.9416 13.5763 17.9416 13.9727H16.677C16.677 13.4122 16.8 12.8995 17.0461 12.4347C17.2922 11.9698 17.6568 11.6007 18.1398 11.3272C18.6229 11.0492 19.2176 10.9102 19.924 10.9102C20.5529 10.9102 21.0907 11.0219 21.5373 11.2452C21.9839 11.464 22.3257 11.7739 22.5627 12.1749C22.8042 12.5714 22.925 13.0362 22.925 13.5694C22.925 13.8611 22.8749 14.1573 22.7746 14.4581C22.6789 14.7543 22.5445 15.0505 22.3713 15.3468C22.2027 15.643 22.0044 15.9347 21.7766 16.2218C21.5533 16.5089 21.314 16.7914 21.0588 17.0694L18.3928 19.961H23.383Z" fill="#FA541C"/>
<path d="M16.0002 31.0001C7.71593 31.0001 1.0002 24.2844 1.0002 16.0001H-0.999802C-0.999802 25.3889 6.61136 33.0001 16.0002 33.0001V31.0001ZM31.0002 16.0001C31.0002 24.2844 24.2845 31.0001 16.0002 31.0001V33.0001C25.389 33.0001 33.0002 25.3889 33.0002 16.0001H31.0002ZM16.0002 1.00009C24.2845 1.00009 31.0002 7.71582 31.0002 16.0001H33.0002C33.0002 6.61125 25.389 -0.999908 16.0002 -0.999908V1.00009ZM16.0002 -0.999908C6.61136 -0.999908 -0.999802 6.61125 -0.999802 16.0001H1.0002C1.0002 7.71582 7.71593 1.00009 16.0002 1.00009V-0.999908Z" fill="white"/>
</svg>
